<?xml version="1.0" standalone="no"?>
<!DOCTYPE svg PUBLIC "-//W3C//DTD SVG 20010904//EN"
 "http://www.w3.org/TR/2001/REC-SVG-20010904/DTD/svg10.dtd">
<svg version="1.0" xmlns="http://www.w3.org/2000/svg"
 width="700.000000pt" height="700.000000pt" viewBox="0 0 700.000000 700.000000"
 preserveAspectRatio="xMidYMid meet">
<metadata>
Created by potrace 1.14, written by Peter Selinger 2001-2017
</metadata>
<g transform="translate(0.000000,700.000000) scale(0.100000,-0.100000)"
fill="#000000" stroke="none">
<path d="M3315 6694 c-127 -8 -326 -36 -465 -64 -798 -162 -1525 -645 -1993
-1326 -189 -274 -359 -646 -447 -979 -72 -272 -104 -525 -104 -825 0 -374 54
-709 169 -1040 163 -467 408 -862 750 -1205 524 -526 1154 -835 1900 -931 183
-24 562 -24 750 0 442 56 853 190 1210 396 447 256 852 646 1125 1082 82 131
214 392 268 531 93 237 162 515 198 792 24 179 24 571 0 750 -79 610 -296
1133 -670 1615 -102 132 -347 378 -491 494 -474 380 -1035 618 -1635 691 -125
15 -452 26 -565 19z"/>
</g>
</svg>
