<?xml version="1.0" standalone="no"?>
<!DOCTYPE svg PUBLIC "-//W3C//DTD SVG 20010904//EN"
 "http://www.w3.org/TR/2001/REC-SVG-20010904/DTD/svg10.dtd">
<svg version="1.0" xmlns="http://www.w3.org/2000/svg"
 width="700.000000pt" height="700.000000pt" viewBox="0 0 700.000000 700.000000"
 preserveAspectRatio="xMidYMid meet">
<metadata>
Created by potrace 1.14, written by Peter Selinger 2001-2017
</metadata>
<g transform="translate(0.000000,700.000000) scale(0.100000,-0.100000)"
fill="#000000" stroke="none">
<path d="M1109 5625 c-75 -80 -189 -228 -271 -350 l-80 -120 184 -7 c440 -17
647 -73 843 -228 267 -213 425 -515 491 -940 21 -141 30 -587 15 -758 -52
-567 -255 -991 -566 -1183 -193 -119 -412 -171 -794 -187 l-173 -7 76 -113
c85 -128 180 -252 257 -336 l52 -57 61 7 c305 31 525 89 741 195 530 259 880
885 946 1694 14 175 6 567 -16 725 -67 485 -239 904 -474 1153 l-35 37 1162 0
1162 0 0 -2310 c0 -1270 2 -2310 5 -2310 2 0 62 26 134 59 128 58 228 111 369
198 l72 45 0 2159 0 2159 486 2 486 3 -80 120 c-83 124 -198 272 -271 350
l-42 45 -2349 0 -2349 0 -42 -45z"/>
</g>
</svg>
